<svg width="231" height="46" viewBox="0 0 231 46" fill="none" xmlns="http://www.w3.org/2000/svg">
<path d="M63.08 31C63 31 62.96 30.96 62.96 30.88L63.008 14.392C63.008 14.328 63.04 14.296 63.104 14.296H67.712C69.184 14.296 70.344 14.744 71.192 15.64C72.056 16.536 72.488 17.752 72.488 19.288C72.488 20.424 72.264 21.408 71.816 22.24C71.368 23.072 70.784 23.712 70.064 24.16C69.344 24.608 68.56 24.832 67.712 24.832H65.888V30.88C65.888 30.96 65.848 31 65.768 31H63.08ZM65.888 21.928H67.712C68.224 21.928 68.664 21.688 69.032 21.208C69.416 20.712 69.608 20.072 69.608 19.288C69.608 18.664 69.44 18.152 69.104 17.752C68.768 17.352 68.304 17.152 67.712 17.152L65.888 17.176V21.928ZM74.0248 31C73.9608 31 73.9288 30.96 73.9288 30.88L73.9768 14.392C73.9768 14.328 74.0088 14.296 74.0728 14.296H78.9208C79.7848 14.296 80.5768 14.512 81.2968 14.944C82.0328 15.36 82.6168 15.928 83.0488 16.648C83.4808 17.352 83.6968 18.152 83.6968 19.048C83.6968 19.64 83.6088 20.176 83.4328 20.656C83.2568 21.12 83.0488 21.52 82.8088 21.856C82.5688 22.176 82.3528 22.416 82.1608 22.576C83.0248 23.536 83.4568 24.664 83.4568 25.96L83.4808 30.88C83.4808 30.96 83.4408 31 83.3608 31H80.6488C80.5848 31 80.5528 30.976 80.5528 30.928V25.96C80.5528 25.384 80.3448 24.888 79.9288 24.472C79.5288 24.04 79.0328 23.824 78.4408 23.824H76.8568L76.8328 30.88C76.8328 30.96 76.8008 31 76.7368 31H74.0248ZM76.8568 20.944H78.9208C79.4168 20.944 79.8568 20.76 80.2408 20.392C80.6248 20.024 80.8168 19.576 80.8168 19.048C80.8168 18.536 80.6248 18.096 80.2408 17.728C79.8728 17.36 79.4328 17.176 78.9208 17.176H76.8568V20.944ZM89.8297 31.24C88.9657 31.24 88.1737 31.024 87.4537 30.592C86.7497 30.144 86.1817 29.56 85.7497 28.84C85.3177 28.104 85.1017 27.296 85.1017 26.416L85.1257 18.808C85.1257 17.928 85.3337 17.128 85.7497 16.408C86.1817 15.688 86.7577 15.112 87.4777 14.68C88.1977 14.248 88.9817 14.032 89.8297 14.032C90.6937 14.032 91.4777 14.248 92.1817 14.68C92.8857 15.112 93.4457 15.688 93.8617 16.408C94.2937 17.128 94.5097 17.928 94.5097 18.808L94.5337 26.416C94.5337 27.296 94.3177 28.104 93.8857 28.84C93.4697 29.56 92.9017 30.144 92.1817 30.592C91.4777 31.024 90.6937 31.24 89.8297 31.24ZM89.8297 28.336C90.3097 28.336 90.7257 28.144 91.0777 27.76C91.4457 27.36 91.6297 26.912 91.6297 26.416L91.6057 18.808C91.6057 18.28 91.4377 17.832 91.1017 17.464C90.7657 17.096 90.3417 16.912 89.8297 16.912C89.3337 16.912 88.9097 17.096 88.5577 17.464C88.2057 17.816 88.0297 18.264 88.0297 18.808V26.416C88.0297 26.944 88.2057 27.4 88.5577 27.784C88.9097 28.152 89.3337 28.336 89.8297 28.336ZM100.294 31.24C99.3984 31.24 98.5904 31.032 97.8704 30.616C97.1664 30.184 96.6064 29.6 96.1904 28.864C95.7904 28.112 95.5904 27.272 95.5904 26.344V25.24C95.5904 25.176 95.6224 25.144 95.6864 25.144H98.3984C98.4624 25.144 98.4944 25.184 98.4944 25.264V26.344C98.4944 26.936 98.6624 27.416 98.9984 27.784C99.3344 28.152 99.7664 28.336 100.294 28.336C100.774 28.336 101.19 28.136 101.542 27.736C101.894 27.336 102.07 26.872 102.07 26.344V14.416C102.07 14.352 102.102 14.32 102.166 14.32H104.854C104.918 14.32 104.95 14.36 104.95 14.44L104.974 26.344C104.974 27.224 104.758 28.04 104.326 28.792C103.91 29.528 103.35 30.12 102.646 30.568C101.942 31.016 101.158 31.24 100.294 31.24ZM106.884 31C106.82 31 106.788 30.96 106.788 30.88L106.812 14.392C106.812 14.328 106.844 14.296 106.908 14.296H114.612C114.676 14.296 114.708 14.336 114.708 14.416V17.104C114.708 17.168 114.676 17.2 114.612 17.2H109.692V20.944H114.612C114.676 20.944 114.708 20.976 114.708 21.04L114.732 23.752C114.732 23.816 114.7 23.848 114.636 23.848H109.692V28.048H114.636C114.7 28.048 114.732 28.088 114.732 28.168V30.904C114.732 30.968 114.7 31 114.636 31H106.884ZM119.266 31C119.202 31 119.17 30.96 119.17 30.88V17.2H116.05C115.97 17.2 115.93 17.16 115.93 17.08L115.954 14.392C115.954 14.328 115.986 14.296 116.05 14.296H125.17C125.25 14.296 125.29 14.328 125.29 14.392V17.08C125.29 17.16 125.258 17.2 125.194 17.2H122.05L122.074 30.88C122.074 30.96 122.042 31 121.978 31H119.266ZM130.681 31.24C129.817 31.24 129.025 31.024 128.305 30.592C127.601 30.144 127.033 29.56 126.601 28.84C126.169 28.104 125.953 27.296 125.953 26.416L125.977 18.808C125.977 17.928 126.185 17.128 126.601 16.408C127.033 15.688 127.609 15.112 128.329 14.68C129.049 14.248 129.833 14.032 130.681 14.032C131.545 14.032 132.329 14.248 133.033 14.68C133.737 15.112 134.297 15.688 134.713 16.408C135.145 17.128 135.361 17.928 135.361 18.808L135.385 26.416C135.385 27.296 135.169 28.104 134.737 28.84C134.321 29.56 133.753 30.144 133.033 30.592C132.329 31.024 131.545 31.24 130.681 31.24ZM130.681 28.336C131.161 28.336 131.577 28.144 131.929 27.76C132.297 27.36 132.481 26.912 132.481 26.416L132.457 18.808C132.457 18.28 132.289 17.832 131.953 17.464C131.617 17.096 131.193 16.912 130.681 16.912C130.185 16.912 129.761 17.096 129.409 17.464C129.057 17.816 128.881 18.264 128.881 18.808V26.416C128.881 26.944 129.057 27.4 129.409 27.784C129.761 28.152 130.185 28.336 130.681 28.336ZM143.173 31C143.109 31 143.077 30.96 143.077 30.88V17.2H139.957C139.877 17.2 139.837 17.16 139.837 17.08L139.861 14.392C139.861 14.328 139.893 14.296 139.957 14.296H149.077C149.157 14.296 149.197 14.328 149.197 14.392V17.08C149.197 17.16 149.165 17.2 149.101 17.2H145.957L145.98 30.88C145.98 30.96 145.949 31 145.885 31H143.173ZM150.478 31C150.414 31 150.382 30.96 150.382 30.88L150.43 14.392C150.43 14.328 150.462 14.296 150.526 14.296H155.374C156.238 14.296 157.03 14.512 157.75 14.944C158.486 15.36 159.07 15.928 159.502 16.648C159.934 17.352 160.15 18.152 160.15 19.048C160.15 19.64 160.062 20.176 159.886 20.656C159.71 21.12 159.502 21.52 159.262 21.856C159.022 22.176 158.806 22.416 158.614 22.576C159.478 23.536 159.91 24.664 159.91 25.96L159.934 30.88C159.934 30.96 159.894 31 159.814 31H157.102C157.038 31 157.006 30.976 157.006 30.928V25.96C157.006 25.384 156.798 24.888 156.382 24.472C155.982 24.04 155.486 23.824 154.894 23.824H153.31L153.286 30.88C153.286 30.96 153.254 31 153.19 31H150.478ZM153.31 20.944H155.374C155.87 20.944 156.31 20.76 156.694 20.392C157.078 20.024 157.27 19.576 157.27 19.048C157.27 18.536 157.078 18.096 156.694 17.728C156.326 17.36 155.886 17.176 155.374 17.176H153.31V20.944ZM161.144 30.88L164.12 14.392C164.136 14.328 164.176 14.296 164.24 14.296H167.72C167.784 14.296 167.824 14.328 167.84 14.392L170.696 30.88C170.712 30.96 170.68 31 170.6 31H167.936C167.872 31 167.832 30.96 167.816 30.88L167.552 29.128H164.288L164.024 30.88C164.008 30.96 163.968 31 163.904 31H161.24C161.176 31 161.144 30.96 161.144 30.88ZM164.768 26.56H167.072L166.088 19.816L165.944 18.928L165.848 19.816L164.768 26.56ZM173.343 31C173.279 31 173.239 30.96 173.223 30.88L169.911 14.392C169.895 14.328 169.927 14.296 170.007 14.296H172.719C172.783 14.296 172.823 14.328 172.839 14.392L174.807 25.384L176.727 14.392C176.743 14.328 176.783 14.296 176.847 14.296H179.535C179.615 14.296 179.647 14.328 179.631 14.392L176.367 30.88C176.351 30.96 176.311 31 176.247 31H173.343ZM181.134 31C181.07 31 181.038 30.96 181.038 30.88L181.062 14.392C181.062 14.328 181.094 14.296 181.158 14.296H188.862C188.926 14.296 188.958 14.336 188.958 14.416V17.104C188.958 17.168 188.926 17.2 188.862 17.2H183.942V20.944H188.862C188.926 20.944 188.958 20.976 188.958 21.04L188.982 23.752C188.982 23.816 188.95 23.848 188.886 23.848H183.942V28.048H188.886C188.95 28.048 188.982 28.088 188.982 28.168V30.904C188.982 30.968 188.95 31 188.886 31H181.134ZM191.212 31C191.148 31 191.116 30.96 191.116 30.88L191.14 14.416C191.14 14.336 191.18 14.296 191.26 14.296H193.924C194.004 14.296 194.044 14.336 194.044 14.416L194.02 28.048H198.964C199.044 28.048 199.084 28.088 199.084 28.168V30.88C199.084 30.96 199.044 31 198.964 31H191.212ZM200.751 31C200.687 31 200.655 30.96 200.655 30.88L200.679 14.416C200.679 14.336 200.719 14.296 200.799 14.296H203.463C203.543 14.296 203.583 14.336 203.583 14.416L203.559 28.048H208.503C208.583 28.048 208.623 28.088 208.623 28.168V30.88C208.623 30.96 208.583 31 208.503 31H200.751ZM210.29 31C210.226 31 210.194 30.96 210.194 30.88L210.218 14.392C210.218 14.328 210.25 14.296 210.314 14.296H218.018C218.082 14.296 218.114 14.336 218.114 14.416V17.104C218.114 17.168 218.082 17.2 218.018 17.2H213.098V20.944H218.018C218.082 20.944 218.114 20.976 218.114 21.04L218.138 23.752C218.138 23.816 218.106 23.848 218.042 23.848H213.098V28.048H218.042C218.106 28.048 218.138 28.088 218.138 28.168V30.904C218.138 30.968 218.106 31 218.042 31H210.29ZM220.369 31C220.305 31 220.273 30.96 220.273 30.88L220.321 14.392C220.321 14.328 220.353 14.296 220.417 14.296H225.265C226.129 14.296 226.921 14.512 227.641 14.944C228.377 15.36 228.961 15.928 229.393 16.648C229.825 17.352 230.041 18.152 230.041 19.048C230.041 19.64 229.953 20.176 229.777 20.656C229.601 21.12 229.393 21.52 229.153 21.856C228.913 22.176 228.697 22.416 228.505 22.576C229.369 23.536 229.801 24.664 229.801 25.96L229.825 30.88C229.825 30.96 229.785 31 229.705 31H226.993C226.929 31 226.897 30.976 226.897 30.928V25.96C226.897 25.384 226.689 24.888 226.273 24.472C225.873 24.04 225.377 23.824 224.785 23.824H223.201L223.177 30.88C223.177 30.96 223.145 31 223.081 31H220.369ZM223.201 20.944H225.265C225.761 20.944 226.201 20.76 226.585 20.392C226.969 20.024 227.161 19.576 227.161 19.048C227.161 18.536 226.969 18.096 226.585 17.728C226.217 17.36 225.777 17.176 225.265 17.176H223.201V20.944Z" fill="white"/>
<path d="M11.6277 3.00804L29.8144 16.1188L24.9788 22.078L5.11503 5.95912L11.6277 3.00804Z" fill="#F9F9F9"/>
<path d="M45.7111 30.4456L29.1363 15.3485L24.3006 21.3076L44.1644 37.4264L45.7111 30.4456Z" fill="#F9F9F9"/>
<path d="M6.5115 4.28709L24.6982 17.3979L19.8626 23.357L-0.0011767 7.23818L6.5115 4.28709Z" fill="white"/>
<path d="M5.75515 28.139L14.6741 31.248L9.83849 37.2071L1.27861 30.261L5.75515 28.139Z" fill="#F9F9F9"/>
<path d="M19.6733 40.5254L15.6578 31.9761L10.2312 37.4027L18.0261 45.1975L19.6733 40.5254Z" fill="#F9F9F9"/>
<path d="M45.7111 35.5618L29.1363 20.4647L24.3006 26.4238L44.1644 42.5426L45.7111 35.5618Z" fill="white"/>
<path d="M31.1782 9.79066C32.2316 8.81141 35.5273 6.18922 38.1607 8.27273C40.7942 10.3562 37.6203 14.5795 36.5669 15.5588C35.5135 16.5381 17.0319 32.6109 15.4518 30.5274C13.8717 28.4439 30.1249 10.7699 31.1782 9.79066Z" fill="#F9F9F9"/>
<path d="M28.1381 12.2277C29.4171 11.0254 33.2543 7.11149 36.4519 9.66958C39.6495 12.2277 35.8124 16.781 34.5333 17.9834C33.2542 19.1857 10.2314 41.0062 8.31286 38.4482C6.39429 35.8901 26.8591 13.43 28.1381 12.2277Z" fill="white"/>
</svg>
